<?xml version="1.0" encoding="UTF-8"?>
<svg id="Layer_2" data-name="Layer 2" xmlns="http://www.w3.org/2000/svg" viewBox="0 0 272.9 360.42">
  <defs>
    <style>
      .cls-1, .cls-2, .cls-3, .cls-4, .cls-5 {
        fill-rule: evenodd;
      }

      .cls-1, .cls-6 {
        fill: #fff;
      }

      .cls-2 {
        fill: #ffcb38;
      }

      .cls-4 {
        fill: #ffdf77;
      }

      .cls-5 {
        fill: #333;
      }
    </style>
  </defs>
  <g id="Eggs">
    <g id="Hard_Egg" data-name="Hard Egg">
      <path class="cls-5" d="M12.4,261v24.86h12.41v24.86h12.4v12.43h12.4v12.43h12.4v12.43h24.81v12.43h99.24v-12.43h24.81v-12.43h12.4v-12.43h12.4v-12.43h12.4v-24.86h12.41v-24.86h12.4v-111.86h-12.4v-37.29h-12.41v-24.86h-12.4v-24.86h-12.4v-12.43h-12.4v-12.43h-12.4v-12.43h-12.4v-12.43h-12.4V0h-74.43v12.43h-12.4v12.43h-12.4v12.43h-12.4v12.43h-12.4v12.43h-12.4v24.86h-12.4v24.86h-12.41v37.29H0v111.86h12.4Z"/>
      <g>
        <path class="cls-1" d="M12.4,236.14v24.86h12.4v24.86h12.4v24.86h12.4v12.43h12.4v12.43h24.81v12.43h99.24v-12.43h24.81v-12.43h12.4v-12.43h12.4v-24.86h12.41v-24.86h12.4v-111.86h-12.4v-37.29h-12.41v-24.86h-12.4v-24.86h-12.4v-12.43h-12.4v-12.43h-12.41v-12.43h-12.4v-12.43h-74.43v12.43h-12.4v12.43h-12.41v12.43h-12.4v12.43h-12.4v24.86h-12.4v24.86h-12.4v37.29h-12.4v87Z"/>
        <path class="cls-2" d="M136.45,136.71h-37.21v12.43h-12.4v12.43h-12.41v12.43h-12.4v12.43h-12.4v62.14h12.4v24.86h12.4v12.43h12.41v12.43h12.4v12.43h74.43v-12.43h12.4v-12.43h12.41v-12.43h12.4v-24.86h12.4v-62.14h-12.4v-12.43h-12.4v-12.43h-12.41v-12.43h-12.4v-12.43h-37.21Z"/>
        <path class="cls-4" d="M86.83,223.71h12.4v-24.86h12.41v-24.86h-24.81v12.43h-12.41v37.29h12.41Z"/>
        <g>
          <path class="cls-3" d="M76.64,135.48v2.89h-5.83v5.83h-5.83v17.43h5.83v5.77h5.83v5.83h17.43v-5.83h5.77v-5.77h5.83v-17.43h-5.83v-5.83h-5.77v-5.77h-17.43v2.89"/>
          <path class="cls-3" d="M88.02,129.67v2.89h-5.83v5.83h-5.83v17.43h5.83v5.77h5.83v5.83h17.43v-5.83h5.77v-5.77h5.83v-17.43h-5.83v-5.83h-5.77v-5.77h-17.43v2.89"/>
          <path class="cls-3" d="M64.94,129.66v2.89h-5.83v5.83h-5.83v17.43h5.83v5.77h5.83v5.83h17.43v-5.83h5.77v-5.77h5.83v-17.43h-5.83v-5.83h-5.77v-5.77h-17.43v2.89"/>
          <path class="cls-3" d="M59.18,115.89v2.89h-5.83v5.83h-5.83v17.43h5.83v5.77h5.83v5.83h17.43v-5.83h5.77v-5.77h5.83v-17.43h-5.83v-5.83h-5.77v-5.77h-17.43v2.89"/>
          <path class="cls-3" d="M76.64,115.84v2.89h-5.83v5.83h-5.83v17.43h5.83v5.77h5.83v5.83h17.43v-5.83h5.77v-5.77h5.83v-17.43h-5.83v-5.83h-5.77v-5.77h-17.43v2.89"/>
          <path class="cls-3" d="M93.81,115.84v2.89h-5.83v5.83h-5.83v17.43h5.83v5.77h5.83v5.83h17.43v-5.83h5.77v-5.77h5.83v-17.43h-5.83v-5.83h-5.77v-5.77h-17.43v2.89"/>
        </g>
        <g>
          <path class="cls-3" d="M182.37,135.48v2.89h-5.83v5.83h-5.83v17.43h5.83v5.77h5.83v5.83h17.43v-5.83h5.77v-5.77h5.83v-17.43h-5.83v-5.83h-5.77v-5.77h-17.43v2.89"/>
          <path class="cls-3" d="M193.76,129.67v2.89h-5.83v5.83h-5.83v17.43h5.83v5.77h5.83v5.83h17.43v-5.83h5.77v-5.77h5.83v-17.43h-5.83v-5.83h-5.77v-5.77h-17.43v2.89"/>
          <path class="cls-3" d="M170.68,129.66v2.89h-5.83v5.83h-5.83v17.43h5.83v5.77h5.83v5.83h17.43v-5.83h5.77v-5.77h5.83v-17.43h-5.83v-5.83h-5.77v-5.77h-17.43v2.89"/>
          <path class="cls-3" d="M164.91,115.89v2.89h-5.83v5.83h-5.83v17.43h5.83v5.77h5.83v5.83h17.43v-5.83h5.77v-5.77h5.83v-17.43h-5.83v-5.83h-5.77v-5.77h-17.43v2.89"/>
          <path class="cls-3" d="M182.37,115.84v2.89h-5.83v5.83h-5.83v17.43h5.83v5.77h5.83v5.83h17.43v-5.83h5.77v-5.77h5.83v-17.43h-5.83v-5.83h-5.77v-5.77h-17.43v2.89"/>
          <path class="cls-3" d="M199.54,115.84v2.89h-5.83v5.83h-5.83v17.43h5.83v5.77h5.83v5.83h17.43v-5.83h5.77v-5.77h5.83v-17.43h-5.83v-5.83h-5.77v-5.77h-17.43v2.89"/>
        </g>
        <g>
          <rect x="122.79" y="134.82" width="10.26" height="10.26"/>
          <rect x="133.08" y="134.82" width="10.26" height="10.26"/>
          <rect x="143.34" y="134.82" width="10.26" height="10.26"/>
          <rect x="153.8" y="124.56" width="10.26" height="10.26"/>
          <rect x="112.53" y="124.56" width="10.26" height="10.26"/>
        </g>
        <g>
          <rect x="140.2" y="169.33" width="3.89" height="3.89" transform="translate(284.29 342.56) rotate(180)"/>
          <rect x="136.3" y="169.33" width="3.89" height="3.89" transform="translate(276.48 342.56) rotate(180)"/>
          <rect x="132.4" y="169.33" width="3.89" height="3.89" transform="translate(268.69 342.56) rotate(180)"/>
          <rect x="128.43" y="173.22" width="3.89" height="3.89" transform="translate(260.76 350.34) rotate(180)"/>
          <rect x="144.09" y="173.22" width="3.89" height="3.89" transform="translate(292.07 350.34) rotate(180)"/>
        </g>
        <g>
          <rect class="cls-6" x="72.81" y="121.33" width="2.88" height="2.88"/>
          <rect class="cls-6" x="69.93" y="124.21" width="2.88" height="2.88"/>
          <rect class="cls-6" x="67.04" y="124.21" width="2.88" height="2.88"/>
          <rect class="cls-6" x="64.16" y="127.09" width="2.88" height="2.88"/>
        </g>
      </g>
    </g>
  </g>
</svg>