<?xml version="1.0" encoding="UTF-8"?>
<svg id="Layer_2" data-name="Layer 2" xmlns="http://www.w3.org/2000/svg" viewBox="0 0 272.9 360.42">
  <defs>
    <style>
      .cls-1, .cls-2, .cls-3, .cls-4, .cls-5, .cls-6, .cls-7 {
        fill-rule: evenodd;
      }

      .cls-1, .cls-8 {
        fill: #fff;
      }

      .cls-2 {
        fill: #ffc6ca;
      }

      .cls-3 {
        fill: #ffa946;
      }

      .cls-5 {
        fill: #ffc127;
      }

      .cls-6 {
        fill: #ffdf77;
      }

      .cls-7 {
        fill: #333;
      }
    </style>
  </defs>
  <g id="Eggs">
    <g id="Soft_Egg" data-name="Soft Egg">
      <path class="cls-7" d="M12.4,261v24.86h12.41v24.86h12.4v12.43h12.4v12.43h12.4v12.43h24.81v12.43h99.24v-12.43h24.81v-12.43h12.4v-12.43h12.4v-12.43h12.4v-24.86h12.41v-24.86h12.4v-111.86h-12.4v-37.29h-12.41v-24.86h-12.4v-24.86h-12.4v-12.43h-12.4v-12.43h-12.4v-12.43h-12.4v-12.43h-12.4V0h-74.43v12.43h-12.4v12.43h-12.4v12.43h-12.4v12.43h-12.4v12.43h-12.4v24.86h-12.4v24.86h-12.41v37.29H0v111.86h12.4Z"/>
      <g>
        <path class="cls-1" d="M12.4,236.14v24.86h12.4v24.86h12.4v24.86h12.4v12.43h12.4v12.43h24.81v12.43h99.24v-12.43h24.81v-12.43h12.4v-12.43h12.4v-24.86h12.4v-24.86h12.4v-111.86h-12.4v-37.29h-12.4v-24.86h-12.4v-24.86h-12.4v-12.43h-12.4v-12.43h-12.41v-12.43h-12.4v-12.43h-74.43v12.43h-12.4v12.43h-12.41v12.43h-12.4v12.43h-12.4v24.86h-12.4v24.86h-12.4v37.29h-12.4v87Z"/>
        <path class="cls-5" d="M136.45,136.71h-37.21v12.43h-12.4v12.43h-12.41v12.43h-12.4v12.43h-12.4v62.14h12.4v24.86h12.4v12.43h12.41v12.43h12.4v12.43h74.43v-12.43h12.4v-12.43h12.41v-12.43h12.4v-24.86h12.4v-62.14h-12.4v-12.43h-12.4v-12.43h-12.41v-12.43h-12.4v-12.43h-37.21Z"/>
        <path class="cls-3" d="M130.62,167.25h-26.99v9.01h-9v9.01h-9v9.01h-9v9.01h-9v45.06h9v18.03h9v9.01h9v9.01h9v9.01h53.97v-9.01h9v-9.01h9v-9.01h9v-18.03h9v-45.06h-9v-9.01h-9v-9.01h-9v-9.01h-9v-9.01h-26.99Z"/>
        <path class="cls-6" d="M96.92,229.93h12.4v-24.86h12.41v-24.86h-24.81v12.43h-12.41v37.29h12.41Z"/>
        <g>
          <path class="cls-2" d="M51.9,123.22v1.38h-2.73v2.79h-2.73v8.34h2.73v2.76h2.73v2.79h8.16v-2.79h2.71v-2.76h2.73v-8.34h-2.73v-2.79h-2.71v-2.76h-8.16v1.38"/>
          <path class="cls-2" d="M59.45,123.22v1.38h-2.73v2.79h-2.73v8.34h2.73v2.76h2.73v2.79h8.16v-2.79h2.71v-2.76h2.73v-8.34h-2.73v-2.79h-2.71v-2.76h-8.16v1.38"/>
        </g>
        <g>
          <path class="cls-2" d="M211.04,123.43v1.38h-2.73v2.79h-2.73v8.34h2.73v2.76h2.73v2.79h8.16v-2.79h2.71v-2.76h2.73v-8.34h-2.73v-2.79h-2.71v-2.76h-8.16v1.38"/>
          <path class="cls-2" d="M218.59,123.43v1.38h-2.73v2.79h-2.73v8.34h2.73v2.76h2.73v2.79h8.16v-2.79h2.71v-2.76h2.73v-8.34h-2.73v-2.79h-2.71v-2.76h-8.16v1.38"/>
        </g>
        <g>
          <rect x="130.57" y="121.74" width="3.89" height="3.89"/>
          <rect x="134.47" y="121.74" width="3.89" height="3.89"/>
          <rect x="138.37" y="121.74" width="3.89" height="3.89"/>
          <rect x="142.33" y="117.85" width="3.89" height="3.89"/>
          <rect x="126.68" y="117.85" width="3.89" height="3.89"/>
        </g>
        <g>
          <path class="cls-4" d="M75.76,102.83v1.51h-3.05v3.05h-3.05v9.13h3.05v3.03h3.05v3.05h9.13v-3.05h3.03v-3.03h3.05v-9.13h-3.05v-3.05h-3.03v-3.03h-9.13v1.51"/>
          <rect class="cls-8" x="81.73" y="107.88" width="2.88" height="2.88"/>
        </g>
        <g>
          <path class="cls-4" d="M194.14,102.83v1.51h-3.05v3.05h-3.05v9.13h3.05v3.03h3.05v3.05h9.13v-3.05h3.03v-3.03h3.05v-9.13h-3.05v-3.05h-3.03v-3.03h-9.13v1.51"/>
          <rect class="cls-8" x="200.68" y="107.88" width="2.88" height="2.88"/>
        </g>
      </g>
    </g>
  </g>
</svg>